<mxfile>
    <diagram id="I1-_8_bihC5a5gf-4IkP" name="アーキ">
        <mxGraphModel dx="1116" dy="790" grid="1" gridSize="10" guides="1" tooltips="1" connect="1" arrows="1" fold="1" page="1" pageScale="1" pageWidth="827" pageHeight="583" background="#ffffff" math="0" shadow="0">
            <root>
                <mxCell id="0"/>
                <mxCell id="1" parent="0"/>
                <mxCell id="46" style="edgeStyle=orthogonalEdgeStyle;orthogonalLoop=1;jettySize=auto;html=1;exitX=0.5;exitY=0;exitDx=0;exitDy=0;shadow=0;strokeColor=#000000;rounded=1;strokeWidth=2;" parent="1" source="2" target="65" edge="1">
                    <mxGeometry relative="1" as="geometry">
                        <mxPoint x="323" y="497.9988633879781" as="targetPoint"/>
                    </mxGeometry>
                </mxCell>
                <mxCell id="2" value="" style="shape=actor;whiteSpace=wrap;html=1;" parent="1" vertex="1">
                    <mxGeometry x="390" y="650" width="50" height="60" as="geometry"/>
                </mxCell>
                <mxCell id="50" style="edgeStyle=orthogonalEdgeStyle;orthogonalLoop=1;jettySize=auto;html=1;" parent="1" source="6" target="14" edge="1">
                    <mxGeometry relative="1" as="geometry"/>
                </mxCell>
                <mxCell id="6" value="Amazon API Gateway" style="outlineConnect=0;fontColor=#232F3E;gradientColor=none;strokeColor=#ffffff;fillColor=#232F3E;dashed=0;verticalLabelPosition=middle;verticalAlign=bottom;align=center;html=1;whiteSpace=wrap;fontSize=10;fontStyle=1;spacing=3;shape=mxgraph.aws4.productIcon;prIcon=mxgraph.aws4.api_gateway;" parent="1" vertex="1">
                    <mxGeometry x="440" y="390" width="80" height="110" as="geometry"/>
                </mxCell>
                <mxCell id="8" value="" style="dashed=0;outlineConnect=0;html=1;align=center;labelPosition=center;verticalLabelPosition=bottom;verticalAlign=top;shape=mxgraph.weblogos.twitter;fillColor=#1DA1F2;strokeColor=none" parent="1" vertex="1">
                    <mxGeometry x="160" y="250" width="40" height="40" as="geometry"/>
                </mxCell>
                <mxCell id="53" style="edgeStyle=orthogonalEdgeStyle;orthogonalLoop=1;jettySize=auto;html=1;startArrow=classic;startFill=1;strokeColor=#000000;strokeWidth=2;exitX=0.5;exitY=0;exitDx=0;exitDy=0;" parent="1" source="76" target="8" edge="1">
                    <mxGeometry relative="1" as="geometry">
                        <mxPoint x="180" y="395" as="sourcePoint"/>
                    </mxGeometry>
                </mxCell>
                <mxCell id="54" value="Authentication" style="edgeLabel;html=1;align=center;verticalAlign=middle;resizable=0;points=[];fontColor=#000000;labelBackgroundColor=none;" parent="53" vertex="1" connectable="0">
                    <mxGeometry x="0.2333" y="-3" relative="1" as="geometry">
                        <mxPoint x="-3" y="-90" as="offset"/>
                    </mxGeometry>
                </mxCell>
                <mxCell id="44" style="edgeStyle=orthogonalEdgeStyle;orthogonalLoop=1;jettySize=auto;html=1;" parent="1" source="14" target="62" edge="1">
                    <mxGeometry relative="1" as="geometry">
                        <mxPoint x="570" y="140" as="targetPoint"/>
                    </mxGeometry>
                </mxCell>
                <mxCell id="51" style="edgeStyle=orthogonalEdgeStyle;orthogonalLoop=1;jettySize=auto;html=1;strokeColor=none;" parent="1" source="14" target="64" edge="1">
                    <mxGeometry relative="1" as="geometry">
                        <mxPoint x="384" y="150" as="targetPoint"/>
                    </mxGeometry>
                </mxCell>
                <mxCell id="14" value="AWS Lambda" style="outlineConnect=0;fontColor=#232F3E;gradientColor=none;strokeColor=#ffffff;fillColor=#232F3E;dashed=0;verticalLabelPosition=middle;verticalAlign=bottom;align=center;html=1;whiteSpace=wrap;fontSize=10;fontStyle=1;spacing=3;shape=mxgraph.aws4.productIcon;prIcon=mxgraph.aws4.lambda;" parent="1" vertex="1">
                    <mxGeometry x="440" y="210" width="80" height="100" as="geometry"/>
                </mxCell>
                <mxCell id="55" value="シナリオデータ" style="whiteSpace=wrap;html=1;fillColor=none;opacity=10;fontColor=#000000;" parent="1" vertex="1">
                    <mxGeometry x="620" y="60" width="120" height="60" as="geometry"/>
                </mxCell>
                <mxCell id="57" value="ユーザ関連データ" style="whiteSpace=wrap;html=1;fillColor=none;opacity=10;fontColor=#000000;" parent="1" vertex="1">
                    <mxGeometry x="210" y="60" width="120" height="60" as="geometry"/>
                </mxCell>
                <mxCell id="58" value="フロントデータ&lt;br&gt;Vue3" style="whiteSpace=wrap;html=1;fillColor=none;opacity=10;fontColor=#000000;" parent="1" vertex="1">
                    <mxGeometry x="263" y="335" width="120" height="60" as="geometry"/>
                </mxCell>
                <mxCell id="62" value="Amazon S3" style="outlineConnect=0;fontColor=#232F3E;gradientColor=none;strokeColor=#ffffff;fillColor=#232F3E;dashed=0;verticalLabelPosition=middle;verticalAlign=bottom;align=center;html=1;whiteSpace=wrap;fontSize=10;fontStyle=1;spacing=3;shape=mxgraph.aws4.productIcon;prIcon=mxgraph.aws4.s3;labelBackgroundColor=none;" parent="1" vertex="1">
                    <mxGeometry x="530" y="40" width="80" height="100" as="geometry"/>
                </mxCell>
                <mxCell id="64" value="Amazon DynamoDB" style="outlineConnect=0;fontColor=#232F3E;gradientColor=none;strokeColor=#ffffff;fillColor=#232F3E;dashed=0;verticalLabelPosition=middle;verticalAlign=bottom;align=center;html=1;whiteSpace=wrap;fontSize=10;fontStyle=1;spacing=3;shape=mxgraph.aws4.productIcon;prIcon=mxgraph.aws4.dynamodb;labelBackgroundColor=none;" parent="1" vertex="1">
                    <mxGeometry x="350" y="40" width="80" height="110" as="geometry"/>
                </mxCell>
                <mxCell id="65" value="Amazon S3" style="outlineConnect=0;fontColor=#232F3E;gradientColor=none;strokeColor=#ffffff;fillColor=#232F3E;dashed=0;verticalLabelPosition=middle;verticalAlign=bottom;align=center;html=1;whiteSpace=wrap;fontSize=10;fontStyle=1;spacing=3;shape=mxgraph.aws4.productIcon;prIcon=mxgraph.aws4.s3;labelBackgroundColor=none;" parent="1" vertex="1">
                    <mxGeometry x="283" y="400" width="80" height="100" as="geometry"/>
                </mxCell>
                <mxCell id="66" style="edgeStyle=orthogonalEdgeStyle;orthogonalLoop=1;jettySize=auto;html=1;shadow=0;strokeColor=#000000;rounded=1;strokeWidth=2;" parent="1" edge="1">
                    <mxGeometry relative="1" as="geometry">
                        <mxPoint x="440" y="260" as="sourcePoint"/>
                        <mxPoint x="390" y="150" as="targetPoint"/>
                    </mxGeometry>
                </mxCell>
                <mxCell id="67" style="edgeStyle=orthogonalEdgeStyle;orthogonalLoop=1;jettySize=auto;html=1;shadow=0;strokeColor=#000000;rounded=1;strokeWidth=2;" parent="1" edge="1">
                    <mxGeometry relative="1" as="geometry">
                        <mxPoint x="520" y="260" as="sourcePoint"/>
                        <mxPoint x="570" y="140" as="targetPoint"/>
                    </mxGeometry>
                </mxCell>
                <mxCell id="68" style="edgeStyle=orthogonalEdgeStyle;orthogonalLoop=1;jettySize=auto;html=1;shadow=0;strokeColor=#000000;rounded=1;strokeWidth=2;" parent="1" edge="1">
                    <mxGeometry relative="1" as="geometry">
                        <mxPoint x="480" y="395" as="sourcePoint"/>
                        <mxPoint x="480" y="310" as="targetPoint"/>
                    </mxGeometry>
                </mxCell>
                <mxCell id="69" value="" style="shape=image;verticalLabelPosition=bottom;labelBackgroundColor=#ffffff;verticalAlign=top;aspect=fixed;imageAspect=0;image=data:image/svg+xml,PHN2ZyB4bWxucz0iaHR0cDovL3d3dy53My5vcmcvMjAwMC9zdmciIHZlcnNpb249IjEuMSIgdmlld0JveD0iMCAwIDI2MS43NiAyMjYuNjkiPjxnIHRyYW5zZm9ybT0ibWF0cml4KDEuMzMzMyAwIDAgLTEuMzMzMyAtNzYuMzExIDMxMy4zNCkiPjxnIHRyYW5zZm9ybT0idHJhbnNsYXRlKDE3OC4wNiAyMzUuMDEpIj48cGF0aCBkPSJtMCAwLTIyLjY2OS0zOS4yNjQtMjIuNjY5IDM5LjI2NGgtNzUuNDkxbDk4LjE2LTE3MC4wMiA5OC4xNiAxNzAuMDJ6IiBmaWxsPSIjNDFiODgzIi8+PC9nPjxnIHRyYW5zZm9ybT0idHJhbnNsYXRlKDE3OC4wNiAyMzUuMDEpIj48cGF0aCBkPSJtMCAwLTIyLjY2OS0zOS4yNjQtMjIuNjY5IDM5LjI2NGgtMzYuMjI3bDU4Ljg5Ni0xMDIuMDEgNTguODk2IDEwMi4wMXoiIGZpbGw9IiMzNDQ5NWUiLz48L2c+PC9nPjwvc3ZnPg==;" parent="1" vertex="1">
                    <mxGeometry x="350" y="370" width="46.17" height="40" as="geometry"/>
                </mxCell>
                <mxCell id="75" value="" style="shape=image;verticalLabelPosition=bottom;labelBackgroundColor=#ffffff;verticalAlign=top;aspect=fixed;imageAspect=0;image=data:image/png,iVBORw0KGgoAAAANSUhEUgAAAgAAAAIACAYAAAD0eNT6AABH60lEQVR42u3dd5xU5b0/8M9zzsyZrSy4dCygqIgCUhdjL9giiN1cTWISSzQWFLBFjYXYDQrG3JjkGkvuL1dzr8YkGGukqFQFREVBMEoRAXd2ZwtTzjy/P2ZBwC2zu3PO95TP+/XyhcLszOeM7J7vPOX7KISc1roYwEAA/QEMaPq1N4BKAN2bfu3S9PBiAEXSmYmIqFnbADQ2/XstgK0AtjT9+iWAzwCsbfp1lVJqm3RgSUo6gJu01uUAqpr+GQZgCID9AZjS2YiIyFU2gFUAlgNYBmAhgAVKqYR0MLcEugDQWpcCOBbASQCOBHAIeLMnIqLm2QDeBzAXwD8BvKmUapAO5ZTAFQBa6z4AzgYwHsBRAGLSmYiIyJe2AZgD4EUA/6uU+lI6UCEFogDQWncDcD6A85D7pG9IZyIiokCxkSsGngXwZ6VUXDpQZ/m6ANBajwRwKYALAJRK5yEiolBIIjcq8DiA15VSWjpQR/iuANBaW8h92p+C3CI+IiIiKZ8AeAzA40qpxs4+mZt8UwA0reC/qumf3tJ5iIiIdrIRwAwAjyql6qTD5MPzBYDWugTAJQBuAtBLOg8REVErtgJ4FMBDXt9S6NkCQGttAvgJgDvBGz8REfnLlwBuBfBfSqmsdJjmeLIA0FofC2A6cs16iIiI/Oo9ANcqpWZLB9mdpwoArXVPAI8gt8iPiIgoKJ5BrhDYIh1kO88UAFrrc5BbSdldOgsREZEDqgHcCOB3Xtg6KF4AaK17AfgvAKdKZyEiInLB3wBcrJT6SjKEaAGgtT4JwBMA+kjmICIictlXAH6ilPq7VACRlrla66jW+mEAL4E3fyIiCp+eAF7UWj+otY5IBHB9BEBr3QPAnwEcJ3HBREREHjMXwLluHzbkagGgta4C8H8A+rr5ukRERB63HsBEpdRit17QtSkArfUZAN4Ab/5ERES76wfgTa316W69oCsFgNb6OgB/AVDi1oURERH5TCmA/9VaX+3GizleAGit7wDwkBuvRURE5HMmgEe01vc6/UKOrQHQWisAvwIwyemLICIiCqDHAFzpVNMgRwqAppv/b5E7xY+IiIg65j8BXOFEEeDUsPz94M2fiIios36K3Bk5BVfwAkBrfTeAKU6/I0RERCFxldb6zkI/aUGnALTWkwE86NpbQkREFB7XKKVmFOrJClYAaK1PA/ACcisYiYiIqLCyAM5SSr1QiCcrSAHQ1OHvXwCK5d4XIiKiwKsHcEwhOgZ2ugBoOs53CXJdjIiIiMhZGwGMVEpt7MyTdGoRoNY6CuBZ8OZPRETklj4Anmu6B3dYZ3cBPADgKOl3goiIKGQOB3B3Z56gw1MAWuuTAczqzHMQERFRh2kA45VS/+jIF3fo5q217gFgOYDe0ldPREQUYl8BGKqU2tTeL2z3FEBTm98/gjd/IiIiaT0B/K4jX9iRNQA/BHCq9BUTERERAGC81vrC9n5Ru6YAtNbdAXwIoIf01RIREdEOWwEMVkp9le8XtHcEYCZ48yciIvKaSgAPtecL8h4B0FofC+AN6SskIiKiFh2jlJqdzwPzKgC01iaAdwEMlb4yIiIiatFSAKOUUnZbD8x3CuBi8OZPRETkdYcCuCifB7Y5AqC1LgXwKYBe0ldFREREbdoIYD+lVGNrD8pnBOBK8OZPRETkF30AXNHWg1odAdBalwFYA678JyIi8pMtAPZVSiVaekBbIwBXgzd/IiIiv+kO4PLWHtDiCIDWOgZgLXJDCUREROQvGwAMUEqlmvvD1kYALgBv/kRERH7VF8D5Lf1hsyMATQf+LAdwiHR6IiIi6rDlSqlhzf1BSyMAR4I3fyIiIr8bqrU+vLk/aKkAuEQ6MRERERXExc395remALTWXQGsB1AinZiIiIg6rRFAX6VUfOffbG4E4HvgzZ+IiCgoigGcs/tvNlcAnN/2cxEREZGPnLf7b+wyBaC17g1gHQBTOikREREVjA2gn1Jq0/bf2H0E4Bzw5k9ERBQ0JoAzd/6N3QuACdIJiYiIyBHjd/6PHVMATcf+bgUQk05IREREBdcIoHL7McE7jwAcB978iYiIgqoYwFHb/2PnAuBE6WRERETkqJO2/8vOBcCR0qmIiIjIUTvu9QoAtNblAKrBHQBERERBlgHQTSlVt30EYCx48yciIgq6CIDRwDdTAGOkExEREZErxgLfFADDOvFERERE5B9DgW8KgKHSaYiIiMgVQwBAaa2LASTANQBERERhkAFQZgDYH7z5ExERhUUEwH4GgAHSSYiIiMhV/Q0A/aVTEBERkasGRADsI52CvKPu97cjs2qZdAxySyQCs+desDeslU5CbjFNVPziaahYsXQSkjUgAqCPdAryBt1Yj+Qbf4FOJ6WjkEusQ49EZO8DkJz3N+ko5KL00rmwqnj8S8j1NgB0l05B3pBa8gZv/iFjVZ0Ea+zJ0jHIZcn5/5SOQPK6GwAqpVOQN/CHQsgYJqzRJ8Ds0x/m3gdIpyEXsdgnAJUGgD2kU5A8nWxEeulc6RjkouhBo2BU5Or/WNVJnXw28hPdWI/08relY5CsSgNAqXQKkpd6bw50slE6BrkoNvaknf6d0wBhk+KIX9iVGAAs6RQkL7WAPwxCRSlYo0/Y8Z/m3gfA7LevdCpyUXLRa0AmLR2D5MRYABB0OoXUkjelY5CLogcMh1G56wYgawxXhYeJrq9F+oMF0jFIDgsAAtLL5kE31knHIBdZY7895x8by3UAYZOc/7J0BJITM/DNiYAUUskF/CEQNtbocd/6vci+h8DstZd0NHJRasHLgG1LxyAZBm/+YWdnkFr8unQKclFrN3pOA4RLNlGN9MdLpGOQEBYAIZdeMR+6rkY6BrmotaF+TgOET4rTAKHFAiDkOAcYPq19yo/sf+i3FgdSsCUXvAzorHQMEsACIMyyNlKLXpVOQS6K7H1g69v9lEJszLj8n5B8L/v1Jh4AFlIsAEIs/dFiZGu2SscgF1l5DPHn8xgKFo4EhhMLgBDjN3345NPyN3rQKBhde0hHJRel5v8T0Fo6BrmMBUBYaY3UotekU5CL8j70RxmwRh8vHZdcZG9ej8zaD6RjkMtYAIRUZtVSZLdulI5BLmrPsb88GyB8OCIYPiwAQorf7OHTni1+0YPHwijvJh2ZXMTDgcKHBUBIpRa+Ih2BXGT26IfIgIPb8QUmrJHHSscmF9kbP0Pm84+lY5CLWACEUGbNCtibvpCOQS6yxp4MKNX+r6FQYVOgcGEBEEIc/g+fjnT4iw49HKqkXDo6uYjngoQLC4AQ4vB/uBhdeyCy/7B2f52KWrBGHCMdn1xkf/4J7PVrpGOQS1gAhAy/wcMnN/zfsW917gYIH44ChAcLgJBJcqVv6HTmgJ/ooUdCxYqlL4FclGIBEBosAEKG1X24GOXdEB00qsNfr2LFsIYfLX0Z5KLMmg+4SDgkWACEiL3xM9iffyIdg1xkVZ0EmGbnnoNnA4QO1wmFAwuAEGGjj/DpzPD/dtbI46CiMelLIRdxp1A4sAAIEX5Th4sq7YLowVWdf56iEkSHHS59OeQitgoPBxYAIcHDPsLHGn0CEIkW5LnyOUWQAkRrJBe+Kp2CHMYCICR43Gf4FPKmXchigvyBXQGDjwVASHD4P1wKPWyvSrvAOmSs9GWRi9IfLUa2erN0DHIQC4AQyMY3I7NqmXQMcpE1qvAL9yxOA4SLziK1+HXpFOQgFgAhkBv+z0rHIBdZVYXv4GdVndjpLYXkL2wcFmwsAEKAw//hkmvec1TBn9co74boQaOlL49clP5gPrKJaukY5BAWAAGXTVQjvXKxdAxykZPte7kbIGRsG6kl/5JOQQ5hARBwqQUvA7YtHYNc5OQBPtbYkzp8sBD5ExuIBRe/kwOOw//h4vQRvkbXHogeOFz6MslF6eVvQTckpGOQA1gABJiur0X6gwXSMchF0SHfgSopd/Q1uBsgXHQ6hdS7b0rHIAewAAiw1KLXgExaOga5yHJw+H+72GEnA0pJXyq5iLsBgokFQIDx6N+QMU1Yo45z/GWMyj6I7HuI9NWSi9JL50InG6VjUIGxAAgova0B6WVvSccgF0UPHgujvJsrr1WIUwbJP3SyEan3ZkvHoAJjARBQqcVvQKeT0jHIRU6u/t+dG1MN5C08GyB4WAAEVGoB5+xCRRmwRh3v2suZvfdBZJ9B0ldNLkot4YeKoGEBEEC54bo50jHIRdGDRsLo1sPV17Q4DRAquWnFedIxqIBYAAQQF+yEjxO9/9vCroDhw74iwcICIIC4ZSdklEKsapzrL2vutT/MfvtJXz25KLX4dW4tDhAWAAHDph3hE9l/GIzKPiKvzVGAcNH1tUitmC8dgwqEBUDAsG1n+EjehLkOIHxS7C8SGCwAAoYHd4SPVXWi2GtHBgyG2Wtv6beAXJRa8AoPGAsIFgBBwqM7Q8cLN2DJAoTcl01UI/3RIukYVAAsAAIk/cF8ZBPV0jHIRV4YgnezARF5A9uMBwMLgADh6v/w8cIivMjAoTC695WOQS5KzX8Z0FnpGNRJLACCQmdzW3QoNDyzDU8pxMa4vw2R5GTjm5H++D3pGNRJLAACIv3RYmSrN0vHIBd54dP/djwbIHy4G8D/WAAEBA/qCB8vzP9vFx00wvVWxCQr+c4/Aa2lY1AnsAAIAq2RXPiqdApykecO41EGrNEnSKcgF2W3bkTm0/elY1AnsAAIgMyqZchu3Sgdg1zkpU//28UEziMgWdwN4G8sAAKA34Th46X5/+2ih1TB6LKHdAxyUeqdl6QjUCewAAiA1IJXpCOQi4zKPojsN0Q6RjPBTFijjpNOQS6yN32BzL9XSsegDmIB4HOZNR/A3vS5dAxyUeywkwGlpGM0y/LgyAQ5iwuQ/YsFgM9xK074ePkmaw07Aqq0QjoGuYgNyPyLBYDPcf4/XIyuPRA9cLh0jJaZEVgjj5FOQS6y162Gvf5T6RjUASwAfMz+YhXs9WukY5CLrKoTAeXtb1svLlAkZ/GDiD95+ycJtYrfdOET8+D2v91Fhx8FVVwqHYNcxHUA/sQCwMf4TRcuRnk3RA8aIx2jTSoagzX8aOkY5KLM2g+5GNmHWAD4lL3xM26/CRlrzDjANKVj5JeV0wChw+3I/sMCwKe4+j98vNj9r8WsI46BsoqkY5CLuBvAf1gA+FSSw/+hokq7wDrkMOkY+ectKkF02BHSMchFmdXLkd2yQToGtQMLAB/Kbt2IzJoV0jHIRdbI44BIVDpGu/hhwSIVEA8l8x0WAD7EYzjDx483Uz8WLdQ5KU4D+AoLAB/i/H+4+HU4XZV2gTXkO9IxyEXple8iW71ZOgbliQWAz2Tjm5H++D3pGOQia8Sxvl1Q56eFi1QAOovUIk4D+AULAJ9JzX8Z0FnpGOQiP99EY6P9s3WRCoMLlP2DBYDPsPtfuKhoDNahR0nH6Hj+8q6IDq6SjkEuSn+wANnar6VjUB5YAPhINlGN9EeLpGOQi4LQVtePCxipE7I2UovfkE5BeWAB4COpha8Cti0dg1wUhIN1rKoTAYPTAGHChcr+wALAR9j7P2QCcrSuUdEd0QM8fIQxFVxq2Tzo+hrpGNQGFgA+oetrkVrxjnQMcpE17Aio0grpGIW5Fk4DhIudQWrJm9IpqA0sAHwitfh1IJOWjkEuCtKBOrGxJwNKSccgF3HBsvexAPAJbq0JGcOENeo46RSFu5zK3ojsN0Q6Brko/d4c6MZ66RjUChYAPqC3NSC9/C3pGOSi6MFVMLrsIR2joGJjT5aOQC7S6SRS782WjkGtYAHgA6l3/wWd2iYdg1wUxK1z1mGnSEcgl3E3gLexAPABrv4PGWXAGn2CdIqCM3vuiUj/g6RjkItS777JDy8exgLA43RqG4fRQiZ64AgY3XpKx3CExWmAUNHbGpBeNk86BrWABYDHpZfOgd7WIB2DXBTkLXMxTgOEDhcwexcLAI/jN0/IKIVY1YnSKRxj9h0Ac8+B0jHIRdzC7F0sALzMziD1Lof/wySy3xAY3ftKx3BUEBc4Ust0QwKp99+WjkHNYAHgYWynGT5h2CpnVQX/GmlXXMjsTSwAPIxbaMLHCvDw/3aR/oNg9hkgHYNclFzEg8y8iAWAV9k8UjNsIv0Hwey9j3QMV1hV46QjkIt0Io70hwukY9BuWAB4VPqDBcjWfi0dg1wUpqHxIBxzTO3DBc3ewwLAo5IL/ikdgVwWOyw8BUBkvyEwevSTjkEuSi14BchyGsBLWAB4kc4iteg16RTkIrPvAJj99pOO4R6lEBvDaYAwydZsQfrj96Rj0E5YAHhQeuW7yFZvlo5BLgpjg5wgNzyi5qXmc2TTS1gAeBC/ScInjC1yg9zymJqXXPAyoLV0DGrCAsBrtEZy4avSKchFoT0kRxmwOA0QKtmtXyLz6fvSMagJCwCPyaxejuyWDdIxyEVh/PS/HbsChk+SI5yewQLAY/jNET5h6P7XkujgMTAqKqVjkItS77wkHYGasADwmNSCV6QjkIuMyt6IDBwqHUPwDTBhjTpeOgW5yP5qHTKffSQdg8ACwFMyn30Ee9Pn0jHIRbGqkwClpGOI4m6A8OFCZ29gAeAh/KYInzDP/+94D4Z8B6q0QjoGuSjJaQBPYAHgIWyVGS5GRXdEDxwuHUOeGYE16jjpFOQie8Na2OtWS8cIPRYAHmGvWw17/afSMchFVtU4wDClY3gCdwOEDz/wyGMB4BH8ZgifWIgO/2lLdNiRUMVl0jHIRSmedyKOBYBH8JshXFR5V0QPrpKO4RkqasEafrR0DHJR5rOVsDeslY4RaiwAPCC3LWaldAxyUWz0CYDJ4f+dcTdA+KTY9VQUCwAPSL09SzoCucyq4s1ud9aIY6BixdIxyEXJBZz6lMQCwAP4TRAuqrgU0SGHScfwHBUrRnTYkdIxyEWZT99HdvN66RihxQJAGA/HCB9r1PFQ0Zh0DE/iboCQ0RpJdj8VwwJAWHL+P3k8ZsjwJtcyFkfhk+IIqBgWAMJS3P4XKhzmbh2nR8In/fF7yFZ/JR0jlFgACMrWbEH6k/ekY5CLuNCtbWyPHDI6y90AQlgACErNfxnI2tIxyEXc6ta22KjjuUUyZNgITQYLAEH8Sx8ubHaTHzZJCp/0hwuRrdkqHSN0WAAI0Yk40h8tlI5BLmK72/yxTXLIZG2kFr8unSJ0WAAISS56FbA5/B8mXP2fPx6UFD5cEO0+FgBC+Jc9ZMwIrJE88jZfRkV3RAeNkI5BLkq9/zZ0fY10jFCJSAcII91YB/urL2D22ks6CrkkcsBwqLIK6Ri+EjtqIrJbv5SOQS5Kf7AQ1phx0jFCQ2nNLjRuS877O5Jv/wPll98DVd5VOg4Rkbjk7OeRWvwGyifPlI4SGhwBEJBa8jpSi15D9ZoVKL/6IUQHj5GOREQkQjfWoe53v0By7otQUQu6sR6quFQ6VihwDYDb7AxS780FkDsHoOb276P+ibsAOyOdjIjIVZnVyxGfejqSc18EAOh0Cqll86RjhQYLAJelP1y460IXnUXjrKcQv/V82Ju+kI5HROQ8rdE460nEbzkP9qbPd/mj1JI3pNOFBgsAl6UWN/+XO7NqGeJTJyA57+/SEYmIHJOt2YLau3+C+iemNTvymVryBjukuoQFgMtS777Z4p/pxjokHrkWiZlToZON0lGJiAoqteg1VF97ClJL57b4GJ2II/3JUumoocACwEX2F6tgf/nvNh+XnPMC4jeeicznH0tHJiLqNJ1Oou4Pd6D2gSugE/E2H9/aByUqHBYALkotfyvvx9rrVqPmxrPQOOtJgDs1icin7PWfoubms7Htn8/k/bMs/f7b0rFDgQWAi9Ir5rfr8TqdRP0T01B7/+V5Vc1ERF6SnP084jecgcxnK9v1dZk1H0DX10rHDzwWAG7J2kh/tKhDX5pa/Hqb82ZERF6hGxJITJ+ExKPXd2w9Uyd+XlL+WAC4pLMV7TcrZ9kzgIi8K/PJ0tyOprf/0ann4TSA81gAuCS94p3OP4nWuZ4BzeydJSISZdtoeHZGrqfJV+s6/XSpdk6ZUvuxAHBJIf8yZ1YvR/yGM5B85yXpyyIiQnbzetTcfgEanptZsD389herkI1vlr60QGMB4AY7g8zKJQV9Sl1fi8Svrkbdf/6cPQOISEzy7VmonjoB6QL/jIPWSK98V/ryAo0FgAsyn33k2E162+vPIn7DRGQ++0j6MokoRHRqG+qfuAuJ6dc4tmI/s2qp9GUGGgsAF2RWLXP0+e31a1Bz89nsGUBErrC/WIX4TWehcdZTjr4OCwBnsQBwQdrhAgDInaJV/8Q01Pzyx5w3IyJnbD/E54aJsD//xPGXy3y6grueHMQCwAVuVrHpZfMQnzKBPQOIqKCytV+j9r7LUP/ENOh0ypXX1KltyPy7fU2EKH8sABym62ry6v9fSOwZQESFlF7xDuJTxiO15F+uv7bTU6hhxgLAYenVy2Tm5bf3DLjtP2BvXi/9NhCRH9kZ1D99H2ruvAjZ6q9EIqRXL5d+FwKLBYDDMp+ukH39T95DfMr4TnflIqJwsb/8N+K3nIfGF38P6KxcDk4BOIYFgMNsDxzpu6Mv98yp0NsapOMQkccl33kpdyS5Bz592+tWcyrTISwAHJZxYaVsvpJzXsj1DFj7oXQUIvIg3ViPxMypSPzqas+cxqfTKdgb1krHCCQWAA7S6RTsjZ9Jx9iFvWEtan5+DhpfeFx0WI+IvCXz6fuIX386knNekI7y7WweGEkNIhYADrLXr/Hk0JVOp1D/pwdQM409A4hCb/ve/lvOc33HUr7c6DkQRiwAHGR/4e2/tOnlb+W29iydIx2FiATktgxfjPonpgGZtHScFrEXgDNYADgo88Uq6QhtytZsbfoBcJenfwAQUWF90zTM+x8A7HWfSkcIpIh0gCCz1/vkL21Tz4D0qmUov2Y6zF57SSciIofodBINz9yPxpee9s3ZIfaWDYBtA6YpHSVQOALgoOymL6QjtEtm1TLEp05Acs5fpaMQkQNyB4edkzvExyc3/1zwTK4IoIJiAeAg+yt/FQAAoBvrkJg5hT0DiAImOft5Xx8dnt30uXSEwGEB4JBszVboxnrpGB2WnPMC4tdPRGbNB9JRiKgTdEMCiUeuReLR66GTjdJxOsz+kgVAobEAcIjfhv+bY29ci/jNZ6Ph2RnsGUDkQ5lVy3J7++f9XTpKp9kcASg4FgAOsb9aJx2hQBeSQcNzM1F772XI1myVTkNE+cjaaHhuZm5vfwA+jAAcAXACCwCHBK1aTb37JuKTv4vUe7OloxBRK7JbN6Lmju/nRu6ytnScwl3X119KRwgcFgAOyW7dKB2h8NdUsxW191zCngFEHpVa+Aqqp4xH+sNF0lEKLlvNrqWFxgLAIdn4FukIzmjqGeDltqFEYaPTSdQ/cRdqH/gZdF2NdBxHZOObuRapwFgAOCRbE9ACoMk3B4ewZwCRJPuLVai58azc3v4gszPIJuLSKQKFBYBDdFBHAHa+xsZ69gwgEpSc/TziN50VmtPystVfSUcIFBYADgnTivnknBcQv+5UZD55TzoKUShkE9Wove8y3+/tb/d1swAoKBYADtDbGkL1TQkA9ub1iP/iAjT+/b/81WKUyGfS77+N+OTTkFr8hnQU1+kQfbByAwsABwR9/r9FmTTqn7wHtXdfHN73gMgpdgb1f3oQNXf9KLSfhLP1CekIgcICwAFBXYWbr9TSOblPKO++KR2FKBCym9ej5vYL0fjCb0O9El43sAAoJBYADtCNddIRxGVrtqL23kvZM4Cok5LvvITqqROQXrlEOoo4FgCFFZEOEER+PgSooJp6BqRXvovySdNh9ukvnYjIN3RjPeqfuhfbXvuzdBTPYAFQWBwBcAALgF1l1qxA/IaJ/EFGlCd+zzSPBUBhsQBwgN7GAmB3urEedb+9NdczgAUSUfO0RuOLv0f85+fC3viZdBrPybIAKCgWAA7gDa5lyTkvID75u+wZQLSbHWdtPH0f1820JLVNOkGgsABwAEcAWrejZ8CLv2fPACLwtM18aRZGBcUCwAH8S5qHTBr1T9+HmrsuCu2eZiLYGTQ8OwO1914Wqu6hHWZnpBMECgsAJ2TDu0+3vdLvv434lPHsGUChY29Yi/hNZ6HhuZmh3tvfLhkWAIXEAsAJLADaJVv79Y6eATqdko5D5Ljk7OcRv2EiMms/lI7iKzrDnw+FxD4ATmA13347egYsaeoZMEA6EVHB6cY61D1+G5Lz/iYdxZ84BVBQHAFwAguADsus+QDx6yciOft56ShEBZX++F3EJ5/Gm38naE4BFBQLAAdoTgF0it7WgMSj1yPx0FXQ9bXScYg6R2s0znoSNb+4APbm9dJpfE2ZpnSEQOEUgBO4ta0gkvP/iczaD1E+aToiA4dKxyFqt+zWL5GYMRnpDxdKRwkGk7esQuIIgANUJCodITDsTZ8jfsu5aHh2BqdWyFdSC19F9dTxvPkXEguAguK76YSoJZ0gWGwbDc/NRPqjxSi/+kEY3XpKJyJqkU4n0fDM/Wh86WmOBhaYivCWVUgcAXCAirAAcEJ6xTu5ngFL/iUdhahZ9rrVqLnpbDTOeoo3fyeYHF0tJBYATuAIgGOytV+j9r7L2DOAPCc5+3nEbzwTmX+vlI4SXJwCKCi+mw5QVkw6QrCxZwB5iE7EkfjNTUgtek06SuDxZ2thcQTAAZwCcEdmzQeIT5mAxllPSkehkEp/sADVU07jzd8lqqRcOkKgsABwQqxYOkFo6NQ21D8xDYlHroVurJOOQ2Fh22j4f9NRc8cPkP16k3Sa0FDFZdIRAoUFgAOM0i7SEUInOe/vqJ58GtIrl0hHoYDLbl6PmtsvRMP/PcatqS4zOAJQUCwAHKDKukpHCKXcD+YLcj0DsrZ0HAqg5PyXUT31dKRXLpaOEkocASgsFgAOUGUcARDT1DOg5q6LODRLBZObaroLiYeuhK6vkY4TWqqEBUAhsQBwgMERAHHpFfMRnzoBqXfflI5CPvfNYtOnpKOEHhcBFhYLAAeosgrpCISmngH3Xoq6394KndomHYf8ZvshPrecC3vjWuk0BMDosod0hEBhHwAHKKsIKhqDTielo5DW2Pban5H5dDnKJz0Msy97BlDbsjVbUPfoDUgtnSMdhXaiunaXjhAoHAFwCP+iektm7YeIT2XPAGpbevnbuekj3vw9h+eAFBYLAIeYlb2lI9BudvQM4EIuao5to+HZGaiZ9iNkqzdLp6FmGBWV0hEChQWAQ4w9WAB4VXL+y6ieMoFbuWgH+6t1iN92Phqem8m9/R6lSrtAsclaQbEAcIixRy/pCNSK7JYNuWYu7BkQesnZzyM++bvIfLJUOgq1wuC0asFxEaBDDE4BeF9Tz4D0R4tRfvWDnF8MGd2QQN3vbkNy3t+lo1Ae+P1ZeBwBcAgLAP9Ir3gH9c/cLx2DXJb5/GPe/H3E7LmXdITAYQHgEC4C9Bdr5HHSEchl0QNHwOjWQzoG5cnoxQKg0FgAOMTotbd0BMqTisZgDT9aOga5TRmwRo+TTkF5MlkAFBwLAIcYFZVQpewI6AfR4UdBFZdKxyABsbEnSUegPJn8UFVwLAAcZPbZRzoC5SFWxZtAWEUPrmJ7WZ9gAVB4LAAcxLazPhCJwhp5rHQKkmKYsEZx/YfXqeIyqPKu0jEChwWAg8w+/aUjUBusoYdDlfL45jCzOALkeWa/faUjBBILAAexAPA+/vAna9gRXK/jcZG9D5SOEEgsABxk7jlQOgK1xjRhjT5eOgVJMyOwRnAXiJeZe+0vHSGQWAA4KLLnQKioJR2DWhA9uApGeTfpGOQB3A3gbZF9OALgBBYATjIjHAXwsFjVydIRyCOihx7Fg2Y8zNz7AOkIgcQCwGGR/gdJR6DmKAPW6BOkU5BHKKuIzaA8yijvBqOCBwE5gQWAw8z+g6UjUDPYBpZ2xwWh3mTyQ5RjWAA4jCMA3mQdxuF/2pU16jioaEw6Bu0mMnCodITAYgHgsEj/QYBS0jFoZ0ohNoY94GlXqqgE0WGHS8eg3UQHDpGOEFgsABymSsph9mUTCy+JDBwKo3tf6RjkQZwG8J7I/odKRwgsFgAuiA4aKR2BdhIby+F/al5s9AlAJCodg5oYlX1gdOspHSOwWAC4IMICwFOsqhOlI5BHqdIuiA4eIx2DmkT35/y/k1gAuCB64HDpCNQk0v8gnipGreIIkXdEBg6TjhBoLABcYPbuD6OiUjoGAbD4w53aYI05ATBM6RgEjp46jQWAG5RC5ACOAngBW75SW4yK7ogOGiEdI/RUrBjR/bgDwEksAFwSPWiUdITQM/vtB7PfftIxyAcstokWFz1oFBdkOowFgEuiQ7m/WFqMzX8oT7GxJ7F/h7DowWOlIwQeCwCXRPY+kK1nhfFTHeXL2KMXO9AJix7CAsBpLADcohSihxwmnSK0zJ575royEuWJuwHkqOJSRAYcLB0j8FgAuMgadoR0hNDi6n9qL/aLkBM9uAowuRPDaSwAXBQddgTnFYXEDjtFOgL5jNlrbx7mJcQacax0hFBgAeAio2sPmHvtLx0jdIzKPohwOxF1AEeOZFgjjpaOEAosAFxmjTxOOkLocEU3dRRHjtwX6T8IRmUf6RihwALAZbHRJ0hHCB2LzX+og8y+A9g7wmXWCH5IcgsLAJdFBg6FUdlbOkZoGBXdEWUXRuoEdo90lzXyGOkIocECwG1KcRrARVbViezrTp3CdQDuMcq7sf+Ci1gACLA4DeAadv+jzuIJku5hwe4uFgACrCGHQZV2kY4ReKq8K6IH8Wx36jz2BHBH7DunSkcIFRYAEswIpwFcEBt9ApuJUEHEqrgOwGlGRSWig6ukY4QKCwAhsSPHS0cIPM7dUqFE9h8Go3tf6RiBZlWdxILdZSwAhFhDDodR0V06RmCp0i6whnxHOgYFhVKIjeHaHSfFDv+udITQYQEgxTQ53+Uga+RxPEucCoqnSTrH6NoD0UEjpWOEDgsAQbEjOA3glBgXbVGBRQeN4KidQ2JHnMbV/wJYAAiKHHAozD79pWMEjioqQfTQI6VjUNAYJixOAzgidsyZ0hFCiQWAsNiRE6QjBI41/Ggoq0g6BgUQdwMUXmTgUET2GSQdI5RYAAgrOu4cDn0VGFf/k1Oih4yFKquQjhEoRceeJR0htFgACDMqe8PicHXBqGgM1nAeJUoOMSOwRh0vnSIwVDTG1f+CWAB4QNG486UjBEZ0+FFQxaXSMSjAOA1QOFbViVClHFGRwgLAA6zhx/CEwALh6n9yWnTY4SwyC6To+HOlI4QaCwAvME0UHXu2dAr/i0TZYrmdsjVbkF65WDqGr6hoDNaIY6Vj+J659wGIHszWv5JYAHhE0fHnsA1mJ1mH8JCl9kgtnYv45PGoue0C1P/3Q4BtS0fyDWsspwE6q/jk7wNKSccINRYAHmF078u5xU6yePRvfmwbDc/OQO3dFyNbswXQWTQ+/5+I33Iu7C//LZ3OF6zhR0PFiqVj+JYq7YLYUadLxwg9FgAeUjz+J9IR/MswuTo7D/bm9Yjfdj4anpsJ6Owuf5ZZvRzx6yciOfdF6Ziep2LFiA7j7p2OKjr+XBZQHsACwEMiA4cicsBw6Ri+FD24CkaXPaRjeFpy9vOIX3cqMp8sbfExurEOiRmTkZg5FXpbg3RkT4txGqBjlIGiky6QTkFgAeA5xeN/LB3Bl7j6v2W6sQ6JR65D4tHr876pJ+e8gPgNE5FZ+6F0fM+yRh4LFbWkY/iONfp4mD33lI5BYAHgObEx42D22ks6hr8oA9aYcdIpPCnz6fu5Yf15f2v319ob1iJ+01loeHbGt6YLCFAl5YjyyOl2Kzn9EukI1IQFgNcYJopO+YF0Cl+JHjgCRree0jG8RWfR+MLjiP+8kwv77AwanpuJ2nsvQ7b2a+mr8hyLC3fbJXrIWE5zeggLAA8qOuE8GBWV0jF8g1uydpWt2Yrauy9B/Z8eAOxMQZ4z9e6biF93KlLvzZa+PE+JjT6B23fboeSMn0pHoJ2wAPAgFStG8WlcC5AXpTj/v5P08rcQnzIeqaVzCv7c2ZqtqL3nEtQ/cReQSUtfqieo8q6IDmYzm3xE+h/EKROPYQHgUUWnfJ+r2vMQ2W8IjO59pWOI0+kU6v/0AGqm/RjZ+GYHX0ijcdZTiN9yHnsGNOFugPwUn3UFG/94DAsAj1KxYhR994fSMTyPzZMAe/0a1Nx8NhpfeNy1xXrfLC78u/Tli7NGjwMUf5S2xuy3L0fqPIh/az2s+JQf8KSsNoR9/j85+3nEbzwDmc8+cv21c9sLrw19zwCjWw9EDxwhHcPTSs6bxCLJg/h/xMNUcRmKT7tIOoZnRfoPgtl7H+kYInR9LRLTr2nX3n6nJOe8gPj1E5FZ84H02yIm7IVoayL7HozYWLbp9iIWAB5XfNqPYXTtIR3Dk6yxp0hHEJFZvRzxG85A8u1Z0lF2sDeuRfzms0PbMyA29mTOb7eg5Pxr+d54FAsAj1NFJSg563LpGJ4UusVXWqNx1pO5BXibPpdO821NPQNqpv0I2WoHFyJ6kFHZG5H9hkjH8JzooJGwhh8tHYNawALAB4rGfS+0Q90tMfsOgNlvP+kYrsnWbEHNL3+M+iemFWxvv1PSy99GfOr40PUM4ILUbys5/1rpCNQKFgB+YEZQ8j1+I+0sFqLh/9Si11B97SlIL5snHSVvuZ4Bl6L+mfs9X7AUisVV7ruwRhyD6MHskeBlLAB8InbYqYjsP0w6hmdYhwV/UZFOJ1H/xF2ofeAK6ERcOk4HLiCLxr/+LteOeONn0mkcZ/bpj8g+g6RjeINpovTC66VTUBtYAPiFUij9jynSKTzB7LUXIv0Pko7hKHvdatTceBYaZz0FaC0dp1Myn76fW7Q490XpKI7jboCc4pMugLnX/tIxqA0sAHwkeshYxA4Lz9B3S6yAbynK7e0/E5nPP5aOUjC6sQ6JGZOR+NXV0PW10nEcw3UAgCqtQMnZV0nHoDywAPCZ0h/eDBUrlo4hKqh7inVDAomHr83t7U82SsdxRPKdlxCfOgGZT96TjuIIc6/9YfbbVzqGqNLzJ0GVd5WOQXlgAeAzRmVvFIf4RK2gbrfKfLIU8akTkHwr+K117c3rEb/te4HtGWCNCe9iQLPffigad750DMoTCwAfKp7wE5i99paOISJWdWKwmopkbTQ8NxPxW8+H/dU66TTusXPXXXv3xcjWbJFOU1Ch60+xk7If3waYEekYlCcWAD6kojGUXnSzdAwRQer+l926ETV3fD/3SThrS8cRkVo6F/HrvovUu29KRymYyL6HwOy1l3QM18WOmojoUB736ycsAHzKGnU8rDHjpGO4yujaA9EDh0vHKIjUgldQPXk80h8uko4iLlv7NWrvvRT1T98HZNLScQrCGh2u701VVoHSH9woHYPaiQWAj5VdfAdUaRfpGK6xxowDDFM6Rqfs2Nv/4M+g62uk43iH1mh88feB6RkQtu2Apd+/EUZFpXQMaicWAD5mdOuB0gumSsdwjd/nVu11q1Fz09m5vf3UrMyaFYjfMBHbXvuzdJROiR4wHEZlb+kY7lzrQaNQdOxZ0jGoA1gA+FzRCechOniMdAzHqfKuiA72aVtRrbHtn8/kjsz990rpNJ6nG+tR99tbkZg5BbqxXjpOxygFa/QJ0imcv8yohbLLfhmshbkhwgLA75RC2U9/CWUVSSdxVGz0OMD03/C/rq9F4uFJqPvDHdDppHQcX0nO+Svik7+L9MfvSkfpkDA0BSo59+rQ9z3wMxYAAWD26Y+Sc4LdecuPB62kP1iA6utORfLtWdJRfMvevB41v7gAjS/+3nctkaODR8Posod0DMdEDjgUxRMulo5BncACICCKT784sFMBqqQc1tDDpWPkz7bR8OwM1Nz5Q2S/3iSdxv/sDOqfvi/3flZ/JZ0mf4YZ2GkAFStG+ZX3+35RbtixAAgKZaDsZ/dBFZdJJyk4a9RxQCQqHSMv2S0bUHP7hWh4bmZo9/Y7Jb3iHcSnjPdVz4Cg7gYo+Y8pMPsMkI5BncQCIEDMnnui9Ee3SMcoOL/MpaYWvILqKROQXrlYOkpg7egZ8MRd0OmUdJw2WUO+A1VaIR2joKKHHIbiUy6UjkEFwAIgYIqOPcuX8+UtUbFiRA89UjpGq3SyEXW/uZl7+92iNRpnPYWaW86DvXGtdJrWmRFYI4+VTlEwqqQcZVfcAyjeOoKA/xcDqOyyaTC69ZCOURDWyGM9vcPB/mIV4jefjW1vPCcdJXQya1YgPmUCGmc9KR2lVX7vX7GzskvuhNmjn3QMKhAWAAFklHdD+ZUPBqJK92y7Y63ROOtJxG+YCPvzT6TThJZObUP9E9OQeOQ66MY66TjNig47AqqoRDpGpxWddAFiR5wmHYMKyP93CGpWdOh3UHL2z6RjdIqKxmCN8N7waTZRjdr7LkP9E9N8MQ8dBsl5f0P15NOQXrlEOsq3KKsI1ohjpGN0SmTvA9nrP4BYAARYyTlXIjrsCOkYHRY99Eio4lLpGLtIr3gH8cmnIbXkX9JRaDfZzetRc/sFudMVdVY6zi4snyxkbY4qKkH5dTM8PRVHHcMCIMiUgfKrHoSxRy/pJB3iqbnTHXv7L/LXXvSwsW00PDfTc/+frBHH+PYGWnbJHez2F1AsAALOqKhE+TXT/ddG10Orp3d8snxupuc+WVLzvDZSo4pKfDkaV3Ty9xE7aqJ0DHIIC4AQiA4ejdL/mCIdo128sn/ay3PL1LodazX++EtPrNXw1IhWHqKDx6DsopulY5CDWACERPGEi1F03NnSMfJmHXay6OvvOJHOw6vLKQ9ao/Eff/TEbg1rpH86Whrd+6L8uhmAGZGOQg5iARAipRffjsj+w6RjtM0wYY06Xuzlg3ImPX3D/mIV4jedJdozQJV2gXXIYdJvRds5ozF0mfIojIpK6SjkMBYAIaKiMXSZ+hsYlb2lo7QqOniMzClq2/f2//xc2Bs/k34bqMB29Ax46Eqxjo1+OBug9NI7EdlviHQMcgELgJAxuvVAlym/horGpKO0KCbQyjhbswW1d/8E9U9MAzJp6beAHJSc/zLi109E5pOlrr+2NfoET5+gVzzxUhQdc6Z0DHIJC4AQigwcirLL7waUko7ybcpw/SyD1NK5iE8ej9TSudJXTy6xv1qH+G3fQ+Pz/+nqzg6jyx6IDh4tffnNih1+mu8WC1PnsAAIqdiRE1D6veukY3xL9MARMLr1dOfFmvb21959MbI1W6QvndxmZ1D/3w+h5s4fIvv1Jtde1ounW0YPGoWyn93rzQ8F5BgWACFWfMZPUXzqD6Rj7MKtOVJ783rEb/se9/YT0ivmIz5lPFKL33Dl9ayxJ3nqnA6z377ocv1/enpakJzhnb+FJKL0op97Z3+yUoi5cPhPcvbziF93KjKfvCd9xeQR2UQ1au//Kep+eyt0stHR1zK69vDMbhyjyx7ocuPjUGXyPTfIfSwAwk4ZKLvqQUQPHCGdBJH9hsBw8KhR3ViHxIzJSDx6PfS2BunLJa/RGtte+zNqbjkP9vo1jr6UF4puVVyKLjf/HmbvfaSjkBAWAARlFaHLDb+FuedA0RxOrv7PrF6O+NTTkZz7oug1kvdlPvso1wfijeccew2r6iTR+fbt3/Pc7hduLAAIAKDKu6Li9qdh9h0glsGR1f/b9/bfej7sTZ+LXRv5i042ou43N6P2wZ850jPA7LknIgMGy1ycGUH55JmIHlwl8/rkGSwAaAejojsqbnsSpoPD8C2J9B8Es09hi49szVbU3n0x9/ZTh6UWvILqKROQXrm44M8tckSwYaL8qgdgjTjG/dcmz2EBQLswKvugy21PurcVr4lVVdje/+nlb+VWdi+d4+p1UPBkt2xAze0XouHZGUDWLtjzxtw+70IplF16J2KHn+bu65JnsQCgbzF774OK2550tR1voeb/dTqF+iemoWbaj5CNb3YtPwWcbaPhuZmoueuigvUMMPsMgLn3Ae7kVwplP74NRcef687rkS+wAKBmmXsORJdb/wijvJvzr9VvX5h77d/p57HXr0HNz8/JHfiitRtvE4VMoXsGxMa40PVSGSi75E4UnXyh869FvsICgFoU6X8QKu76s+PTAbGxnR8KTc5+HvEbz0Bm7YduvT0UUtlENWrvuwyJmVM73TPA8cZXhomyy+9G0bjzXXyHyC9YAFCrzH77omLa/8Dsuadjr2F1ogDQjXVIPHId9/aT65JzXkD8xjOR+fzjDj9HZJ9Bzu28MUyUX3EPio49S+gdIq9jAUBtMnvuiYrbn3GkYYjZc09E+h/Uoa/dsbd/3t+k3yIKKXvdatTceFZu2qmDLCe6X5oRlF/7MGJHnyH47pDXsQCgvBg9+uWKgAJ/WunQp3+dRcP/PYb4Ledybz+J0+kk6p+YhsSvroaur2331xf6cCBlFaHLlF8XZGqNgo0FAOXNqOyNrtOeLWjb4Pb+kMrWbEHt3Rej4f9NB+zCbcki6qzkOy+hesp4pD9qX8+AQrbAVqUV6HLrE7BGHSf9dpAPsACgdlHlXdHl1j/CGnlsp5/LqOyNyMCheT8+teg1VF97ClJL50q/DUTN6lDPgAIdgmV064mKO55BdNAo6beBfIIFALWbihWjy/W/6fTK4lie/dBzQ6x3ofaBK6ATcenLJ2pdtqlnwB0/QHbrl3l9SWd3A5h77Y+u9/wFkX0GSV89+QgLAOoYw0TZpXeh9IKpHX6KfOb/7fVrUHPzOWic9RT39pOvpD9ciOrrTkXy7X+0+djogSNgdOvRodeJHDAcXe/4bxiVfaQvmXyGBQB1SvHES1F2+d1AJNqurzMquiN64PBWH7PttT8jfsNEZD77SPoyiTpENySQePha1P3hDuh0suUHKgPW6PZPA8SOPgMVtz8DVd5V+lLJh1gAUKcVHXcOKn7xNIyK7nl/jVU1DjDMZv9sxw/N397a6UYrROK0xrZ/PoP49ROR+ffKFh8Wa880gFIoOecqlF95P1TUkr5C8ikWAFQQ0UEj0fW+5xHZ95C8Hh9r4fCfzKpliF9/OpJv/V36kogKyl63GjU3nd1iz4DowVV5nb+hikrQZepjKDn3aulLIp9jAUAFY1T2RsWd/93mJxlV3vXbZ5FnbTS+8Djit54Pe9MX0pdC5IjtPQNqH7gCuq5m1z80zDa375m99kLXu/8Ca/QJ0pdCAcACgApKxYpRft1MlJxzVYsr/GOjjgfMb4b/s1s3oub2C1H/pwcAOyN9CUSOSy18FdVTJyC9cteeAVYrTYGiQ76Drvf8X0EOziICWACQE5RCyblXo+LWPza7LmDn1f+pha92qHkKkd9lt2xAzS927RlgDTsCqrRi1wcqheKJl6Lilv/iYj8qKKU191aRc7Jbv0Ti4UlIr1wCAFDFpdjjDwsAAA3P3J/b3kcUcpEDDkX5NdNh9twTiRmTkZz7IoDcdFn5VQ/CGn60dEQKIBYA5DzbRv2ff4XGv/4OsSPGo+TMy5F4+NpWV0QThY0qKUfZZXdBRaKofeBniOw3BOWTZ8IsUJtgot2xACDXpBa+iuTbs5Ba+Grre6KJQqzomDOhKipR+r3rADMiHYcCjH+7yDXWmHGI7Hswsls37pgSIKJvGBWVsA47BdaIY6SjUAhwBIDcZ9to+N9fo+F/H8v/wBSigIsO/Q7Kr3ywwy2BidqLBQCJSa+Yj8TMKch+vUk6CpEc00TJmVeg5JwrAcWNWeQeFgAkKpuoRt1jNyK1+A3pKESuM3vuifJrpiNywKHSUSiEWACQPK2x7fX/Qf0f72bvfwqN2FETUXbJHVBFJdJRKKRYAJBn2F+sym0P/Pxj6ShEjlHFpSi7+A7EjjpdOgqFHAsA8hSd2oaGPz3ABkEUSJH9hqB80nSYvfeRjkLEAoC8KbXgFSR+czN0fU3nn4xImlIoPuX7KP3+jUAkKp2GCAALAPKw7JYNSDwy+VsHphD5iVFRibKf3cd2vuQ5LADI29gzgHwsOvRwlF/5APf2kyexACBfSH+wAIkZk9kzgPzBjKDkzMu5t588jQUA+UauZ8BNSC1+XToKUYvMvgNQPulhRAYMlo5C1CoWAOQ7ydnPo+53v2DPAPIc7u0nP2EBQL5kr1uNxPRJ7BlAnqCKy1B2yR2IHTlBOgpR3lgAkG+xZwB5QWTgUJRf8yvu7SffYQFAvpda2NQzoI49A8hF3NtPPscCgAIhu2UDEjMmI/0RewaQ84yK7ii78j5Yhx4lHYWow1gAUHCwZwC5IDr0cJRf9QCMrtzbT/7GAoACJ/3hwlzPgK1fSkehAFFRCyXnXoPi0y/m3n4KBBYAFEi6IYG6396C5NuzpKNQAHBvPwURCwAKNPYMoM7i3n4KKhYAFHj2utVIPHwtMv9eKR2FfEQVl6Hs0jsRO2K8dBQiR7AAoFDQ6SQanrmfPQMoL5GBQ1E+aTrMXntLRyFyDAsAChX2DKBWbd/b/4ObADMinYbIUSwAKHSyWzci8ch17BlAu8jt7b8f1qFHSkchcgULAAqnrI2Gv7BnAOVEhx2B8ivv595+ChUWABRqmU+WIvHItbC/WicdhQSoqIWSC69H8Sk/AJSSjkPkKhYAFHq5ngG3Ivn2P6SjkIvMfvvm9vb3P0g6CpEIFgBETdgzIDxiR01E2aV3QsWKpaMQiWEBQLQTe/2nSEyfxJ4BAZXb238XYkecJh2FSBwLAKLdsGdAMOX29j8Ms9de0lGIPIEFAFELUgtfReI3N7FngN9xbz9Rs1gAELUiu3UjEjMmI/3hIuko1AFGRXeUX/UAosOOkI5C5DksAIjakrXR+OIfUP/n6YCdkU5DebJGn4Dyy++BKu8qHYXIk1gAEOUps2oZEg9PYs8Aj1PRGEounMq9/URtYAFA1A66IYG6x29D8q2/S0ehZuT29j+CSP9B0lGIPI8FAFEHsGeA93BvP1H7sAAg6iB7/adIPDwJmc/YM0CSKilH2aV3InY49/YTtQcLAKJO2NEz4KWnAX4ruS6y/zCUXzOde/uJOoAFAFEBpBa9lusZkIhLRwkHZaD4lAu5t5+oE1gAEBVIduuXTT0DFkpHCTSjsg/Kr34I0cGjpaMQ+RoLAKJC0lk0vvQ06p+6lz0DHGCNGYfyn97Nvf1EBcACgMgBmVXLkHjkWtibvpCOEgjc209UeCwAiByiGxKo+91tSM5jz4DOMPvth/JJD3NvP1GBsQAgchh7BnQc9/YTOYcFAJEL7PVrmnoGfCQdxRdUSTnKLrsLse98VzoKUWCxACByCXsG5CdywKG5vf0995SOQhRoLACIXJZa/DoSj93IngG7M0wUT/gJSs+/lnv7iVzAAoBIQLZmCxIzpyK9bJ50FE/g3n4i97EAIJKiNRpfeir0PQOsMeNQfvk9UGUV0lGIQoUFAJGwzOrlSDx8LexNn0tHcdWOvf2n/lA6ClEosQAg8gDdWIe6x28NTc8Ac8+BKJ80HZF9uLefSAoLACIPCUPPAO7tJ/IGFgBEHhPUngHc20/kLSwAiDxIp1NoeOa+wPQMiA4eg/KrH4JR2Vs6ChE1YQFA5GHpZfOQePR6ZOObpaN0jGGi5KwrUHL2zwDDlE5DRDtRWmsbgCEdhIial63ZgrpHr0dq6VzpKO1idO+b29t/0CjpKET0bVmltW4EUCSdhIha4bOeAdaYE1F++d3c20/kXY1Ka10DoIt0EiJqm9d7BnBvP5FvxJXWejOA7tJJiCg/uZ4BtyE572/SUXZh7jkQ5dc+jMjeB0pHIaK2bVJa67UA+ksnIaL2Sc5+HnW/vx16W4N0FO7tJ/KfNUprvQTACOkkRNR+9oa1uZ4Baz8UeX2jvBvKrrgH1qjjpd8KImqfRQaALdIpiKhjzL4DUPHL51A88VJAubuZJ3pwFbo++Dfe/In8aYsBYKt0CiLqOBW1UHrBVFTc8l8wuvZw/gVNEyXnXIWK256EsUcv6csnoo7ZagDYKJ2CiDovOvRwdH3wRViHHuXYaxjd+6Li9mdQcu7VbOxD5G9fGgD+LZ2CiArDqOiOLjf/HqU/ugWIRAv63FbViej24IuIDmJjH6IAWKu01hMA/FU6CREVVmb1ciQeuQ72l52r8ZVVhJILpnBvP1GwfFdprYcAWC6dhIgKTzfWoe53v0By7osd+npzr/1RPmk69/YTBc/BSmtdBCABICKdhoic0e6eAUqh6PjzUHrRzdzbTxQ8aQBlCgC01h8COEg6ERE5J9+eAbm9/ffCGnWcdGQicsYKpdSQ7RuH35dOQ0TOMvsOQNd7/hcl51zVYs+A6CFjm/b28+ZPFGDLgW+OAeYaAKIwMCMoOffqXM+Abjv1DNi+t//WP3JvP1HwrQCA7VMAJwB4VToREbknW7MVdb++AZl1q1F+9UOIDhopHYmI3HGsUurN7QVAGYBqcCEgUbjoLHRyG1RRiXQSInJHGkBXpVSDAQBKqTpwHQBR+CiDN3+icHlPKdUAfLMGAADmSaciIiIiR+241+9cALwsnYqIiIgcteNer7b/i9a6BLmTAYuk0xEREVHBNQKoVEo1AjuNADTNCcyVTkdERESOeGP7zR/YdQoA4KFAREREQfW3nf9D7fwfWuteANYD4EHfREREwZEB0E8p9dX239hlBEAptQnAHOmUREREVFBv7HzzB749BQAAz0qnJCIiooJ6bvffULv/hta6AsAGAOwOQkRE5H/1APoqpWp3/s1vjQAopWoA/EU6LRERERXE/+x+8weanwIAgN9LpyUiIqKC+ENzv6laerTWejmAIdKpiYiIqMOWKaUObe4PjFa+6FfSqYmIiKhTHmzpD1obAYgCWANgT+n0RERE1G7rAeyrlEo194ctjgAopdIAfi2dnoiIiDrk4ZZu/kArIwAAoLUuA/ApgJ7SV0FERER524zcp/+6lh7Q2hoANH3hgyAiIiI/ubu1mz/QxggAsOOY4E8B9Ja+GiIiImrTBgADdz75rzlGW8/SdEzwrdJXQ0RERHn5eVs3fyCPEQAA0FobABYAGCV9VURERNSidwGMVkpl23pgmyMAAND0RJMAaOkrIyIiomZpAJPyufkDeRYAAKCUegvAn6SvjoiIiJr1lFJqbr4PzmsKYDutdSWAD8FtgURERF6yBcBgpdTmfL8g7xEAAFBKbQUwRfoqiYiIaBdXt+fmD7RzBGA7rfWLAMZLXy0RERHhBaXUGe39oo4WAD0ALAPQR/qqiYiIQmwDgGFKqS3t/cJ2TQFs1zTMcBG4K4CIiEiKBnBxR27+QAcLAABQSr0CHhlMREQk5T6l1Esd/eIOTQFsp7U2AbwEYJz0u0BERBQibwA4USlld/QJOlUAAIDWuieAJQD2lH43iIiIQuALACPbu+p/dx2eAthOKfUVgDMA1Eu/I0RERAFXB2BiZ2/+QAEKAABQSi0GcB6ADg9FEBERUatsABcqpd4txJMVpAAAAKXUPwBcJ/WuEBERBdzVSqm/FurJClYAAIBSagaAaa6/JURERMH2C6XUY4V8wk4vAmyO1vp+AFNdeUuIiIiC7RGl1KRCP6lTBYAC8BiAnzr8phAREQXZYwCuVEoVvPFeQacAtmsKegXYKIiIiKijHoVDN3/AoQIAyBUBSqnJAG506jWIiIgC6j6l1FVO3fwBh6YAdqe1vhq50QDTjdcjIiLyKRu51f4FXfDXHFcKAADQWp8M4FkA5W69JhERkY/UA/ieUupvbryYawUAAGitRwF4HmwbTEREtLPPkevw955bL+jYGoDmNHUMHA7gNTdfl4iIyMNmAxjj5s0fcLkAAICmc4tPAfAQcmcZExERhZEGcC+A45VSm9x+cVenAL515VqfAOBJAH0lcxAREblsE4AfK6VmSQVwfQRgZ0qp1wAcCsCVBQ9EREQe8AKAQyRv/oBwAQAASqnNSqkJAM4F0OnjDYmIiDzqawCXKaXOaJoOFyU6BbA7rXV3ANMBXCidhYiIqEA0gKcATFZKbZUOs52nCoDttNZVAB4GMFY6CxERUSe8C2CSUmqudJDdiU8BNEcptQDA4QAuBrBROg8REVE7bQDwYwCjvXjzBzw6ArAzrXUMwA8B3AGgt3QeIiKiVmwB8CCAGUqpRukwrfF8AbCd1roMuRMGrwG3DRIRkbesA/AIgN8opeqlw+TDNwXAdlrrKICJAKYCGC2dh4iIQm05gF8DeEoptU06THv4rgDYmdZ6JIBLAfwHgDLpPEREFArbkOtf8ziA1508stdJvi4AttNaVyDXR+A8AMeAxw4TEVFh2QDeAPA/AJ5TStVKB+qsQBQAO9Na9wRwJoDTARwNoFg6ExER+VIDgDcBvAjg/5RSgWpWF7gCYGda62IARwE4CcCRyLUdjkjnIiIiT8oAeA/AXAAvA5jjt3n99gh0AbA7rXUpgDHINRgaCmAIgAPBooCIKGzSAD4GsAK5hXzzASz0ywr+QghVAdAcrbUFYCCAAQD6N/3aG0DlTv90Re69KgKnFIiIvKoRuQV6GkAcwNad/tkI4DMAa5t+Xa2USkkHlvT/AYKhc8zO5weGAAAAAElFTkSuQmCC;" vertex="1" parent="1">
                    <mxGeometry x="134" y="399" width="92" height="92" as="geometry"/>
                </mxCell>
                <mxCell id="76" value="Auth0" style="whiteSpace=wrap;html=1;fillColor=none;opacity=10;fontColor=#000000;" vertex="1" parent="1">
                    <mxGeometry x="120" y="370" width="120" height="25" as="geometry"/>
                </mxCell>
                <mxCell id="72" value="group" style="locked=1;" parent="0"/>
                <mxCell id="70" value="" style="whiteSpace=wrap;html=1;labelBackgroundColor=#FF0080;fontColor=#000000;fillColor=none;strokeColor=#000000;strokeWidth=2;" parent="72" vertex="1">
                    <mxGeometry x="120" y="330" width="290" height="190" as="geometry"/>
                </mxCell>
                <mxCell id="74" style="edgeStyle=orthogonalEdgeStyle;rounded=1;orthogonalLoop=1;jettySize=auto;html=1;shadow=0;labelBackgroundColor=#FF0080;strokeColor=#000000;strokeWidth=2;fontColor=#000000;" parent="72" source="2" target="6" edge="1">
                    <mxGeometry relative="1" as="geometry"/>
                </mxCell>
            </root>
        </mxGraphModel>
    </diagram>
</mxfile>